<svg xmlns="http://www.w3.org/2000/svg" width="256" height="256"><path fill-opacity=".016" d="M0 128.004v128.004l128.25-.254 128.25-.254.254-127.75L257.008 0H0v128.004m.485.496c0 70.4.119 99.053.265 63.672.146-35.38.146-92.98 0-128C.604 29.153.485 58.1.485 128.5" fill="#1976D2" fill-rule="evenodd"/><path fill-opacity=".183" d="M105 1.531C94.293 3.459 82.162 7.602 71.355 13.023l-9.357 4.693-8.565-1.061c-11.572-1.434-11.857-1.21-12.221 9.609-.201 6.004-.723 8.915-1.75 9.767-1.243 1.032-1.462.595-1.462-2.909V29h-9v8.918c0 10.527-1.236 15.218-2 7.591-.535-5.337-1.754-6.289-6.522-5.093-2.299.577-2.373.928-2.711 12.839-.345 12.195-.366 12.286-5.031 22.245-8.259 17.631-11.178 33.484-10.492 56.975.507 17.338 2.65 29.312 7.42 41.468 14.502 36.953 42.759 64.142 79.467 76.465 22.478 7.546 53.997 7.553 76.804.018 10.426-3.445 26.273-11.461 34.063-17.231l6.498-4.813 7.002 5.705c10.016 8.161 13.756 9.913 21.16 9.913 5.127 0 6.694-.425 9.132-2.477 6.393-5.379 9.291-18.246 7.217-32.044-1.308-8.707-6.449-23.328-8.475-24.105-.939-.36-.138-3.8 3.068-13.181 5.604-16.395 7.4-27.12 7.4-44.193 0-16.282-1.768-27.541-6.588-41.959-14.677-43.902-52.31-76.735-96.858-84.504C138.732-.35 115.464-.353 105 1.531m3.235 10.903c-9.124 1.734-19.806 4.959-27.081 8.177l-5.613 2.482 6.979 3.771c6.86 3.707 6.985 3.847 7.297 8.154.227 3.126.581 3.967 1.235 2.932.742-1.173.95-1.068 1.09.55.095 1.1.439-.25.765-3l.593-5 8-4.214c13.834-7.288 30.746-11.696 37.943-9.89 2.398.602 2.558 1.029 2.572 6.873.009 3.427.358 5.692.777 5.034.502-.79 1.263-.88 2.234-.266.811.513 3.162.939 5.224.948L154 29l.022 7.75c.022 7.649.046 7.72 1.813 5.423 1.382-1.797 2.574-2.253 5.228-2l3.437.327.573 7c.316 3.85.653 6.389.75 5.642.125-.96.984-1.164 2.927-.696 5.142 1.24 5.347 2.267 5.037 25.198l-.287 21.162 3.703.495c4.804.643 9.022 3.712 12.949 9.419 1.736 2.524 4.026 5.458 5.09 6.522 3.466 3.466 4.758 8.28 4.758 17.726 0 7.362.277 9.032 1.5 9.032 1.083 0 1.5 1.111 1.5 4 0 3.865-.112 4-3.326 4-3.733 0-6.863-2.757-8.325-7.335l-.906-2.835-2.839 2.835-2.84 2.835 2.868.505c2.547.448 2.902.966 3.17 4.627.28 3.837.537 4.161 3.709 4.676 1.874.304 5.107.084 7.182-.489 4.565-1.26 12.095-.497 16.24 1.646 4.184 2.164 9.86 7.277 13.217 11.906l2.808 3.871 1.074-2.827c1.501-3.948 4.968-16.61 4.968-18.145 0-.785-1.337-1.27-3.5-1.27H233v-7.055c0-6.582-.268-7.449-4-12.945-2.2-3.24-4-6.14-4-6.445 0-.305 1.79-.555 3.977-.555 3.162 0 4.32.524 5.652 2.556l1.675 2.557 2.848-3.118c3.477-3.807 3.59-6.538.832-20.072-4.951-24.299-15.008-43.094-32.395-60.546-14.898-14.953-31.894-24.698-52.419-30.058-12.077-3.153-35.347-4.088-46.935-1.885M46.632 23.516c-.348.906-.632 17.361-.632 36.566V95h3.606c8.397 0 23.078 5.396 31.497 11.576L86 110.17V34.025l-6.861-3.455c-9.238-4.652-17.297-7.213-25.257-8.025-5.622-.574-6.713-.428-7.25.971m83.868-.818c-5.255.697-17.767 5.244-25 9.085l-7 3.717-.215 36.849-.215 36.848 2.215-1.591c9.494-6.819 21.57-11.567 31.465-12.372l6.25-.508V22l-2.25.15c-1.238.082-3.6.329-5.25.548M15.234 104c-1.65 8.373-2.262 14.992-2.25 24.344.015 11.995.148 12.878 2.016 13.366 1.567.41 2 1.364 2 4.407 0 2.135-.45 3.883-1 3.883-1.5 0-1.246 1.918 1.542 11.638 7.553 26.336 25.491 50.403 48.804 65.48 27.416 17.729 61.414 22.541 93.559 13.241 10.052-2.908 24.314-9.74 32.04-15.347l5.445-3.952-4.945-2.202c-3.667-1.633-6.898-2.205-12.503-2.214-9.929-.016-17.436 3.464-28.77 13.34-4.58 3.99-10.853 8.777-13.941 10.636-4.905 2.953-6.467 3.38-12.375 3.38h-6.762l-6.186-7.187c-9.232-10.726-10.422-13.926-10.342-27.813.057-9.846.463-12.649 2.824-19.49 6.992-20.263 21.673-35.471 34.27-35.5 2.288-.006 8.199 1.31 13.136 2.923 4.937 1.614 10.603 3.239 12.59 3.612 3.124.586 3.614.419 3.614-1.227 0-1.286-1.056-2.215-3.25-2.861-3.043-.896-3.25-1.243-3.25-5.457v-4.5l3.862-.317c3.727-.306 3.84-.423 3.25-3.375-.337-1.682-.612-4.246-.612-5.697v-2.639l-10.75.733c-5.913.404-12.212.86-13.998 1.014l-3.248.281-.002 6.75L140 150h-9l-.032-6.25c-.029-5.713-.158-6.083-1.5-4.309-.807 1.068-1.468 3.88-1.468 6.25V150h-4c-3.905 0-4-.083-4-3.5 0-1.925-.275-3.5-.61-3.5-1.086 0-12.879 6.459-13.223 7.242-.565 1.284-8.956.853-9.584-.492-.466-1-.7-1-1.166 0-.612 1.31-5.13 1.681-7.835.643-.87-.334-1.582-1.576-1.582-2.759 0-1.184-.939-2.74-2.087-3.457-1.934-1.207-2.034-1.132-1.363 1.01a87.326 87.326 0 001.194 3.563c.332.884-.842 1.25-4.01 1.25-4.383 0-4.524-.102-6.574-4.75l-2.095-4.75-.032 4.75L71 150h-9v-6.383c0-5.543-.263-6.453-2-6.907-1.857-.485-2-.03-2 6.384V150h-9l-.168-6.75c-.103-4.113-.321-5.285-.56-3-.216 2.063-.816 3.75-1.332 3.75-.517 0-.94 1.35-.94 3 0 2.833-.222 3-4 3h-4l-.07-6.25c-.076-6.774-.736-9.111-2.68-9.5-.778-.156-1.25.883-1.25 2.75 0 2.762-.278 3-3.5 3-1.925 0-3.5.45-3.5 1s1.575 1 3.5 1c3.417 0 3.5.095 3.5 4v4h-5.5c-8.679 0-11.448-4.527-10.195-16.667.597-5.783 1.835-8.034 5.16-9.381 1.621-.657 1.277-.838-1.689-.889L18.052 123l-.276-15.25L17.5 92.5 15.234 104m129.6 8.993c1.834.434 4.534.427 6-.016 2.024-.611 1.22-.801-3.334-.789-5.1.014-5.5.135-2.666.805M133 114.124c0 .676-.986.845-2.584.444-1.675-.42-2.358-.283-1.941.392.745 1.205 3.844 1.387 4.942.29.412-.412 3.525-.597 6.916-.41 7.857.433 7.128-.364-1.083-1.185-4.236-.423-6.25-.272-6.25.469M52 115c-.825.533-1.05.969-.5.969s1.675-.436 2.5-.969c.825-.533 1.05-.969.5-.969s-1.675.436-2.5.969m72.733 1.124c.679.684 1.486.991 1.793.683.308-.308-.247-.867-1.233-1.243-1.425-.542-1.54-.428-.56.56m52.517 3.991c-1.787 1.145-3.25 2.271-3.25 2.502 0 1.04 5.698-1.048 7.472-2.738 2.767-2.636.022-2.482-4.222.236m33.25 2.83c-4.833 1.979-5.828 4.516-6.305 16.078L203.743 150h4.629c4.476 0 4.628-.099 4.628-3 0-1.65.45-3 1-3s1-1.8 1-4-.45-4-1-4-1-1.125-1-2.5c0-1.556.567-2.5 1.5-2.5 1.228 0 1.5 1.722 1.5 9.5v9.5h9l-.056-9.25c-.031-5.088-.594-10.813-1.25-12.724-1.761-5.123-7.598-7.371-13.194-5.081m-51.25.744c.963.252 2.537.252 3.5 0 .963-.251.175-.457-1.75-.457s-2.713.206-1.75.457m82.036 14.811c.008 2.75.202 3.756.432 2.236.229-1.52.223-3.77-.014-5-.237-1.23-.425.014-.418 2.764m-106.602 24.973c-6.6 2.312-12.122 8.135-17.57 18.527-5.427 10.351-7.453 17.88-7.535 28-.059 7.288.289 9.142 2.439 13 2.062 3.701 3.082 4.556 5.743 4.813 4.489.435 10.984-3.348 21.239-12.367 4.903-4.313 11.652-9.056 15.948-11.211 7.259-3.64 7.73-3.735 18.521-3.735 10.431 0 11.449.185 17.56 3.193 3.567 1.757 10.533 6.669 15.479 10.916 15.852 13.614 21.649 16.046 26.342 11.051 2.967-3.159 4.15-7.773 4.15-16.193 0-14.066-6.311-29.773-15.898-39.569-8.294-8.475-10.85-8.902-25.242-4.221-10.207 3.32-12.476 3.701-22.36 3.75-9.749.048-12.08-.304-20.5-3.099-12.733-4.225-13.891-4.406-18.316-2.855m1.983 8.194c-.367.366-.667 2.763-.667 5.325 0 3.68.527 5.154 2.507 7.014l2.506 2.355 2.994-2.867c2.981-2.856 3.611-5.587 2.363-10.244-.505-1.882-1.292-2.25-4.82-2.25-2.319 0-4.517.3-4.883.667m63.853 1.31c-1.298 1.435-1.635 2.929-1.226 5.446.545 3.357.486 3.434-1.825 2.381-1.873-.854-2.918-.74-4.852.528-6.484 4.248-2.337 13.397 5.181 11.431 1.471-.384 1.702.081 1.386 2.79-.45 3.849 2.518 7.447 6.142 7.447 2.876 0 6.674-3.878 6.674-6.814 0-3.451-3.658-6.445-7.348-6.014-3.009.351-3.152.208-3.152-3.152 0-3.443.088-3.52 4.02-3.52 3.924 0 4.011.076 3.651 3.162-.773 6.617 8.998 8.486 11.227 2.148 1.4-3.98-1.419-7.81-5.748-7.81-3.077 0-3.274-.199-2.878-2.901.862-5.869-7.239-9.556-11.252-5.122M126 187v5h4.826c3.854 0 5.298-.503 7.174-2.5l2.349-2.5-2.349-2.5c-1.876-1.997-3.32-2.5-7.174-2.5H126v5m18-2.5l-2.349 2.5 2.349 2.5c1.935 2.06 3.287 2.5 7.674 2.5H157v-10h-5.326c-4.387 0-5.739.44-7.674 2.5m-5.826 5.814c-1.587 1.69-2.174 3.567-2.174 6.955 0 4.551.071 4.654 3.663 5.328 4.822.904 6.768-.475 7.155-5.073.253-3.01-.24-4.355-2.437-6.649-3.323-3.468-3.463-3.481-6.207-.561" fill="#1976D2" fill-rule="evenodd"/><path fill-opacity=".4" d="M110 .685C99.225 2.577 83.235 7.709 74.071 12.216L63.5 17.415l-11 .043-11 .042-.287 8.629c-.236 7.073-.641 8.949-2.25 10.405C37.039 38.275 37 38.217 37 33.595v-4.716l-3.75.311-3.75.31-.285 9.657c-.206 6.987-.69 9.992-1.75 10.872-1.258 1.044-1.465.403-1.465-4.532V39.75l-3.177.635c-1.747.35-3.371.83-3.608 1.067-.237.236-.368 5.164-.292 10.95.137 10.358.078 10.64-3.771 18.309-2.15 4.284-5.296 12.126-6.991 17.426-2.998 9.378-3.41 10.995-4.933 19.363-.944 5.189-.944 35.811 0 41 1.52 8.354 1.933 9.982 4.911 19.363 6.023 18.973 17.373 37.672 31.349 51.649 15.502 15.501 35.618 27.036 57.012 32.69 11.442 3.024 12.883 3.172 31 3.191 18.258.019 19.469-.105 31-3.189 14.027-3.751 32.431-12.473 42.728-20.249l6.728-5.081 4.272 2.922c7.21 4.932 10.464 6.204 15.878 6.204 6.304 0 10.783-2.956 14.104-9.308 3.112-5.953 3.747-22.638 1.209-31.76-2.469-8.875-2.219-11.999 1.833-22.952 5.823-15.738 7.189-24.097 7.189-43.98 0-13.071-.453-19.592-1.79-25.768-6.913-31.926-24.095-59.197-49.151-78.012-10.334-7.76-28.902-16.643-42.5-20.332-10.522-2.855-12.988-3.142-29-3.381-9.625-.143-18.625-.063-20 .178m7.5 9.949c-11.801 1.263-26.377 5.232-38 10.348l-5 2.201 7.75 3.921 7.75 3.92v43.988C90 99.205 89.634 119 89.187 119c-.447 0-2.135-1.384-3.75-3.077-8.006-8.386-23.871-15.507-37.437-16.802l-6.5-.621-.5-23.959c-.487-23.349-.545-23.89-2.268-21.258-1.586 2.424-1.741 5.146-1.5 26.459L37.5 103.5l8 .626c16.209 1.268 30.297 6.793 39.189 15.369 5.981 5.768 6.804 5.721 14.38-.823C109.122 109.989 125.29 104 138.678 104h6.298l.262-37.25.262-37.25h8v81.549l-8.558.44c-11.896.611-24.915 3.857-34.942 8.712-10.038 4.861-9.466 6.185.787 1.822 9.481-4.035 19.195-6.004 33.713-6.836l12-.687.262-36.786c.284-39.702.152-38.838 5.577-36.775l2.684 1.02-.262 40.271-.261 40.27-7.207.293c-7.058.287-7.168.332-5.324 2.176 2.009 2.009 1.782 5.163-.51 7.065-.984.817-1.985.667-3.892-.582-2.732-1.79-3.382-5.237-1.367-7.252 1.4-1.4-.403-1.558-6.419-.563-3.544.586-3.649.713-2.25 2.711 1.071 1.529 1.469 5.015 1.469 12.875V150h-7v-8.878c0-6.206-.404-9.212-1.342-9.991-2.214-1.837-2.658-.244-2.658 9.536V150h-8.216l.365-11.49c.415-13.072 1.309-12.264-9.016-8.149l-5.368 2.139.037 8.75.036 8.75H98l-.033-6.25-.034-6.25-1.966 2.361c-1.214 1.457-1.967 3.849-1.967 6.25 0 3.748-.122 3.889-3.362 3.889-3.342 0-3.367-.034-4.028-5.66-.777-6.615-3.011-9.179-5.802-6.661-1.583 1.428-1.539 1.873.695 6.924L83.89 150h-3.994c-3.729 0-4.122-.281-5.923-4.25-2.339-5.153-2.558-10.311-.473-11.112 2.535-.972 1.77-3.638-1.044-3.638-1.455 0-2.474.535-2.381 1.25.089.688.109 4.963.043 9.5L70 150h-7v-11.383c0-10.96-.084-11.406-2.25-11.987-1.237-.331-2.7-.61-3.25-.618-.629-.01-.885 4.439-.691 11.986L57.118 150H50l-.015-8.75c-.016-8.876-.862-12.062-2.873-10.819-1.383.855-1.478 5.569-.112 5.569.55 0 1 1.575 1 3.5s-.45 3.5-1 3.5-1 1.575-1 3.5c0 3.417-.095 3.5-4 3.5h-4v-10.365c0-8.851.292-10.737 2-12.908 1.1-1.398 2-2.809 2-3.135 0-.325-2.634-.592-5.853-.592-3.22 0-8.507-.277-11.75-.616l-5.897-.617.177-15.511c.098-8.53-.182-15.116-.622-14.633-1.167 1.28-3.97 13.781-4.905 21.877-1.189 10.29-.273 28.515 1.466 29.183 1.611.618 1.905 6.977.347 7.496-1.263.421 2.874 15.165 7.109 25.34 11.176 26.846 35.411 50.665 62.73 61.653 35.355 14.22 74.919 10.048 106.238-11.203 8.47-5.747 8.647-6.159 4.282-9.991-6.48-5.689-11.671-7.467-21.822-7.473-11.659-.006-16.507 2.237-30 13.884C131.227 232.983 125.604 236 118.132 236c-5.152 0-5.72-.255-9.627-4.333-5.241-5.47-7.048-11.429-6.873-22.667.161-10.334 2.343-19.204 7.01-28.5 7.301-14.539 16.381-23.486 25.858-25.477 5.364-1.127 6.172-.978 24 4.423 11.326 3.431 19.6 3.056 33.5-1.518 11.701-3.85 19.655-4.219 25.54-1.185 3.817 1.968 12.832 10.384 14.701 13.722.472.844 1.215 1.535 1.651 1.535.637 0 4.136-10.464 6.772-20.25.392-1.457-.21-1.75-3.597-1.75H233v-7.57c0-6.658-.341-8.073-2.83-11.75-4.677-6.91-4.662-6.68-.461-6.68 3.07 0 4.146.525 5.437 2.652l1.609 2.652 1.737-2.652c.956-1.459 2.384-2.652 3.173-2.652 2.766 0-.67-21.151-5.821-35.834-13.537-38.589-46.333-67.264-86.472-75.606-7.571-1.573-25.209-2.639-31.872-1.926m2.161 8.32c-3.212 1.037-10.234 3.992-15.605 6.568l-9.765 4.684-.645 10.552C92.715 55.97 92.85 119 93.813 119c.447 0 2.135-1.411 3.75-3.136 7.651-8.168 20.714-14.1 35.762-16.239l8.175-1.162V17.5l-8-.215c-5.603-.151-9.75.349-13.839 1.669M45 57.308v37.504l5.25.669c12.525 1.595 22.597 5.466 31.088 11.947L86 110.987V33.345l-9.75-4.609c-12.007-5.675-16.972-7.308-25-8.221L45 19.804v37.504m84.5-36.61c-5.255.697-17.767 5.244-25 9.085l-7 3.717-.262 38.25c-.144 21.037.016 38.25.356 38.25.339 0 1.987-1.152 3.661-2.561 6.822-5.741 19.548-10.668 30.995-12l5.75-.669V20l-2.75.15a90.19 90.19 0 00-5.75.548M27.25 69.969c-.899 1.44-1.25 8.015-1.25 23.382v21.379l12.25.533c6.737.293 15.557 1.257 19.598 2.142 8.906 1.95 20.311 6.804 25.402 10.811 2.063 1.624 3.75 2.557 3.75 2.074 0-1.304-8.773-7.692-14.5-10.559-9.028-4.52-18.328-6.801-30-7.359-6.05-.289-11.554-.698-12.23-.91-.913-.285-1.3-5.949-1.5-21.94-.222-17.724-.492-21.2-1.52-19.553m141.015 30.846c-1.748 1.11-.881 10.82.922 10.322.722-.199 2.442-.699 3.822-1.111 1.38-.412 3.494-.384 4.698.061 2.046.757 5.293 5.557 5.293 7.824 0 1.654-4.23 5.089-6.265 5.089-1.039 0-3.204 1.315-4.812 2.923-2.801 2.801-2.923 3.301-2.923 12V147h-3.5c-3.462 0-3.5.047-3.5 4.34v4.341l5.452 1.307c5.67 1.361 18.166.822 21.427-.923 1.265-.677 1.594-1.904 1.31-4.885-.367-3.847-.526-4.003-4.696-4.629-3.927-.589-5.493-1.91-5.493-4.633 0-.505.71-.918 1.577-.918s2.948-1.371 4.623-3.046c2.544-2.544 2.956-3.603 2.5-6.415-.411-2.53-.068-3.801 1.377-5.108 1.884-1.706 1.923-1.556 1.923 7.367 0 5.009.5 10.204 1.11 11.545 1.179 2.587 4.707 4.657 7.937 4.657 2.786 0 2.749-6.022-.047-7.768-1.745-1.09-2-2.332-2-9.74V124h-3c-2.959 0-3-.072-3-5.35 0-4.295-.562-6.126-2.851-9.286-5.283-7.293-8.604-9.366-14.976-9.349-3.12.009-6.229.369-6.908.8M33 106.441c0 .857.45 1.559 1 1.559s1-.423 1-.941-.45-1.219-1-1.559c-.55-.34-1 .084-1 .941m115.543-.51c-.317.512-.118 1.213.441 1.559.559.345 1.016-.074 1.016-.931 0-1.757-.6-2.015-1.457-.628m11.04 10.935c-.431.697-.513 1.537-.183 1.867.895.895 1.871-.421 1.387-1.871-.338-1.016-.574-1.016-1.204.004M22.5 118c.34.55.816 1 1.059 1s.441-.45.441-1-.477-1-1.059-1-.781.45-.441 1m186.864 6.17c-3.383 1.638-4.364 5.208-4.364 15.877V150h3.5c3.23 0 3.5-.234 3.5-3.031 0-1.772.623-3.271 1.5-3.607.926-.356 1.5-1.875 1.5-3.969 0-2.349-.461-3.393-1.5-3.393-.825 0-1.5-.638-1.5-1.418 0-2.45 1.163-4.582 2.5-4.582 1.976 0 2.5 2.427 2.5 11.582V150h7v-11.045c0-10.394-.145-11.191-2.455-13.5-2.655-2.656-8.153-3.236-12.181-1.285M21 126c-1.682 1.682-2 3.333-2 10.389 0 10.865 1.294 12.722 9.334 13.389l5.666.47v-3.564c0-3.396-.176-3.578-3.75-3.874-4.85-.401-5.232-3.167-.5-3.623 2.692-.26 3.25-.732 3.25-2.75 0-2.041-.487-2.437-3-2.437-2 0-3-.5-3-1.5 0-1.048 1.056-1.5 3.5-1.5 3.333 0 3.5-.167 3.5-3.5V124h-5.5c-4.167 0-5.985.485-7.5 2m73.459 5.067c-1.076 1.741.149 2.11 1.521.457.789-.95.865-1.524.201-1.524-.584 0-1.36.48-1.722 1.067m146.148 3.515c-.953 2.484-.681 14.161.289 12.418 1.219-2.189 2.228-14 1.196-14-.483 0-1.151.712-1.485 1.582m-108.74 29.426c-8.084 4.271-18.337 20.341-21.45 33.616-3.189 13.605-.709 26.671 5.752 30.297 2.348 1.318 3.03 1.215 7.95-1.21 2.959-1.459 9.881-6.509 15.381-11.221 11.54-9.888 17.502-13.135 27.021-14.712 13.167-2.182 24.775 1.458 36.515 11.448 17.879 15.215 23.768 18.443 28.269 15.494 6.702-4.391 8.197-20.243 3.33-35.294-3.14-9.712-11.372-22.427-17.243-26.634-6.101-4.372-10.216-4.535-21.392-.848-18.085 5.966-28.042 5.985-45.438.086-10.32-3.499-13.662-3.682-18.695-1.022m9.142 7.799c-4.028.41-4.972 1.499-4.994 5.756-.01 2.067.901 3.94 2.801 5.76l2.816 2.698 2.184-2.325c1.596-1.699 2.184-3.571 2.184-6.951 0-2.545-.338-4.777-.75-4.96-.412-.183-2.321-.173-4.241.022m60.571 1.309c-3.374 2.654-3.147 6.393.555 9.145 2.352 1.748 2.944 1.811 5.5.591 3.918-1.868 4.617-7.862 1.197-10.257-2.984-2.09-4.028-2.015-7.252.521m-9.925 9.713c-2.519 2.784-2.095 6.836.922 8.814a5.777 5.777 0 008.066-8.066c-2.033-3.102-6.52-3.476-8.988-.748m-65.46 3.921l.305 4.75 4.533.296c3.779.247 4.929-.127 6.924-2.25l2.392-2.546-2.349-2.5c-1.883-2.004-3.316-2.5-7.229-2.5h-4.881l.305 4.75m18.022-2.481l-2.215 2.358 2.87 2.75c2.395 2.295 3.596 2.699 7.249 2.437l4.379-.314v-9l-5.034-.295c-4.216-.247-5.393.088-7.249 2.064m-6.002 6.185c-1.285 1.633-1.894 3.891-1.823 6.75l.108 4.296 4.75.305 4.75.305v-4.881c0-3.808-.508-5.358-2.314-7.055-2.9-2.724-3.117-2.713-5.471.28M201 192c-4.071 4.071-1.327 10 4.629 10 3.811 0 5.371-1.61 5.371-5.545 0-5.8-5.987-8.468-10-4.455" fill="#1976D2" fill-rule="evenodd"/><path fill-opacity=".203" d="M111.5.969c-14.569 2.084-35.485 9.099-44.866 15.048-3.595 2.28-5.109 2.71-7.332 2.083-1.541-.434-6.065-.889-10.052-1.012L42 16.866v8.912c0 7.364-.318 9.2-1.829 10.567C37.479 38.781 37 38.427 37 34c0-3.905-.083-4-3.5-4H30l-.022 8.75C29.96 45.892 29.596 47.959 28 50l-1.956 2.5-.022-5.75L26 41h-7v11.029c0 10.2-.219 11.462-2.921 16.815-3.995 7.914-9.478 23.955-11.683 34.183-2.555 11.844-2.555 38.102 0 49.946 5.98 27.735 18.413 50.216 38.05 68.804C58.528 237 75.524 246.331 98 252.276c10.777 2.851 12.631 3.043 29.5 3.043s18.729-.192 29.598-3.053c17.162-4.516 32.166-11.741 45.758-22.034l5.357-4.057 4.33 3.306c13.801 10.534 26.431 7.449 30.883-7.545 2.601-8.757 1.377-25.69-2.466-34.124-.895-1.965-.78-3.283.558-6.394 3.245-7.541 7.358-20.453 9.128-28.65 2.489-11.527 2.489-38.009 0-49.536-5.711-26.448-17.561-48.403-36.042-66.777C191.601 13.586 163.398 1.384 131.5.499c-7.7-.214-16.7-.002-20 .47m-.686 10.04c-3.127.497-8.527 1.634-12 2.527-7.272 1.87-23.808 8.607-23.812 9.701-.001.406 3.148 2.324 6.998 4.263l7 3.525v87.711l-3.575-3.371c-5.329-5.027-11.886-9.286-18.314-11.898-6.695-2.72-21.507-5.913-23.639-5.095C42.201 98.86 42 95.601 42 74.469 42 61.011 41.735 50 41.41 50c-.324 0-1.434 1.013-2.466 2.25-1.722 2.064-1.88 4.282-1.911 26.856L37 103.711l7.326.554c14.319 1.083 27.054 5.383 36.174 12.213 6.995 5.24 8.889 7.926 7.339 10.408-1.166 1.867-1.369 1.815-5.276-1.354-9.331-7.569-22.32-12.013-40.388-13.818l-12.268-1.226.01-21.744C29.922 76.785 29.565 67 29.123 67 26.728 67 26 73.143 26 93.359v21.264l14.25 1.151c18.077 1.46 39.699 7.117 27.5 7.196-4.006.025-4.75.331-4.75 1.949 0 1.734-.364 1.821-3.75.896-2.062-.562-4.342-1.506-5.066-2.096-.723-.59-5.673-1.132-11-1.204-5.326-.072-12.946-.217-16.934-.323L19 122v-16.059c0-9.505-.375-15.827-.919-15.491-1.313.812-4.901 16.748-5.695 25.3l-.673 7.25H5v10.05c0 11.595 1.438 15.688 5.822 16.564 2.493.499 2.932 1.306 4.943 9.084C26.1 198.676 59.719 232.346 99.5 242.56c31.826 8.171 68.332 1.125 94.686-18.276 5.795-4.266 5.942-4.485 4.263-6.34-3.294-3.64-11.031-7.878-17.324-9.49-12.218-3.131-21.994.031-35.095 11.352C132.168 231.783 124.794 236 117.712 236c-4.657 0-10.096-4.11-12.855-9.713-2.087-4.238-2.353-6.164-2.325-16.787.024-9.352.497-13.48 2.14-18.707 3.15-10.021 8.883-19.501 16.292-26.939 10.021-10.059 15.695-10.996 32.941-5.441 17.838 5.745 19.692 5.722 40.055-.515 11.847-3.629 17.045-3.696 23.843-.309C222.449 159.904 233 170.048 233 172.2c0 .44.397.8.882.8 2.27 0 9.006-27.293 9.083-36.803.024-2.899.851-5.504 2.535-7.982 1.375-2.024 2.5-4.025 2.5-4.447 0-.422-1.125-.768-2.5-.768-2.172 0-2.5-.442-2.5-3.369 0-5.55-2.755-19.619-5.51-28.141-9.929-30.71-31.768-55.829-60.861-70.001C160.66 13.71 149.146 10.93 131 10.472c-7.975-.201-17.059.041-20.186.537m6.131 9.303c-5.255 1.812-12.455 4.886-16 6.831L94.5 30.679l-.26 44.014-.261 44.014 5.261-4.888C108.31 105.392 124.04 99 135.71 99H141V17l-7.25.009c-5.583.007-9.447.766-16.805 3.303M44.96 26.5c-.022 3.575-.04 11-.04 16.5s.018 19.675.04 31.5L45 96h4.29c8.981 0 22.772 4.983 31.86 11.512 2.67 1.919 5.058 3.488 5.306 3.488.713 0 .661-72.686-.055-75.537C85.188 30.629 60.215 20 50.074 20H45l-.04 6.5m75.25-3.966c-4.009 1.366-10.872 4.285-15.25 6.486L97 33.022v77.975l4.852-3.486C110.938 100.983 124.73 96 133.71 96H138V20l-5.25.026c-2.901.014-8.511 1.136-12.54 2.508M146 66.554v37.153l-7.704.651c-15.247 1.289-27.223 5.561-37.463 13.365l-4.956 3.777 2.846 1.165c2.535 1.038 3.72.737 10.812-2.742 10.094-4.951 17.01-6.737 31.715-8.191l11.75-1.161V30.219l-3.5-.409-3.5-.408v37.152M32.014 68.25c.007 19.388.27 36.208.584 37.378.502 1.871 1.56 2.214 8.737 2.834 4.491.388 10.067 1.058 12.392 1.488 2.324.431 4.009.432 3.744.004-.582-.943-6.369-1.97-15.897-2.822L34.5 106.5l-.262-36.75C34.071 46.399 33.615 33 32.988 33c-.632 0-.983 12.701-.974 35.25M149 69.393c0 39.95.376 37.607-6.041 37.607-4.573 0-17.959 2.175-17.959 2.918 0 .372 3.713.116 8.25-.567 4.537-.683 10.162-1.267 12.5-1.296L150 108V70.5c0-20.625-.225-37.5-.5-37.5s-.5 16.377-.5 36.393m7.762 8.641l-.262 37.035-11 .52c-12.694.6-23.141 2.54-32.359 6.01-8.596 3.236-9.237 3.828-7.993 7.395l1.001 2.871 4.175-1.775c2.297-.976 5.459-2.09 7.026-2.477 1.568-.386 4.118-1.638 5.666-2.783 2.608-1.928 4.837-2.232 12.484-1.704 1.1.076 7.963-.213 15.25-.643l13.25-.782V41h-6.976l-.262 37.034M22.231 81.103L22 118.706l11.661.698c6.413.383 15.283 1.329 19.711 2.102 4.427.773 8.204 1.251 8.393 1.062.925-.924-11.762-3.004-24.265-3.978l-14-1.09-.519-37-.518-37-.232 37.603M160 80.391c0 33.716-.134 36.588-1.75 37.529-1.581.921-1.544 1.022.392 1.05 1.467.02 2.34-.763 2.773-2.486 1.031-4.11.598-71.358-.464-72.014-.595-.368-.951 13.089-.951 35.921m9.75 20.247c-1.361.395-1.75 1.604-1.75 5.435 0 2.71.158 4.927.351 4.927.193 0 1.776-.497 3.517-1.104 4.821-1.68 7.814-.439 10.194 4.226l2.087 4.09-2.249 2.394c-2.069 2.203-2.1 2.394-.379 2.394 1.028 0 3.066 1.146 4.528 2.547l2.659 2.547 1.623-2.476c2.918-4.454 3.078-9.616.451-14.539-3.469-6.5-8.636-10.3-14.493-10.658-2.634-.161-5.576-.063-6.539.217m-20.481 18.055c.973.254 2.323.237 3-.037.677-.274-.119-.481-1.769-.461-1.65.02-2.204.244-1.231.498m-21.149 1.85c-3.51.762-6.66 1.689-7 2.061-.341.373.505.41 1.88.082 3.259-.775 15.4-2.551 20.5-2.999 2.359-.207 1.334-.387-2.5-.439-3.575-.049-9.371.534-12.88 1.295m-85.807 5.864c-2.711 2.332-2.799 2.715-2.806 12.25-.007 9.449.083 9.856 2.243 10.163 1.918.272 2.25-.138 2.25-2.782 0-1.834.613-3.336 1.5-3.676.825-.317 1.5-1.442 1.5-2.5 0-1.059-.675-2.184-1.5-2.5-3.415-1.311-.578-8.906 3.066-8.21 1.706.325 1.993 1.486 2.434 9.858.456 8.657.676 9.49 2.5 9.49 1.82 0 2.027-.765 2.295-8.5.331-9.544-.098-12.16-2.368-14.43-2.377-2.377-7.858-1.964-11.114.837m48.142.048C88.172 128.737 88 129.618 88 139.024c0 9.918.044 10.109 2.25 9.796 2.111-.3 2.281-.906 2.75-9.82.491-9.333.544-9.5 3-9.5s2.509.167 3 9.5c.469 8.914.639 9.52 2.75 9.82 2.204.313 2.25.115 2.25-9.616 0-8.536-.292-10.305-2.073-12.569-2.783-3.539-8.031-3.621-11.472-.18m34.18-.382c-2.546 2.002-2.635 2.426-2.635 12.5 0 9.76.128 10.427 2 10.427 1.835 0 2-.667 2-8.066 0-8.763 1.044-11.934 3.928-11.934 2.576 0 3.072 1.881 3.072 11.651 0 8.23.068 8.478 2.25 8.169 2.135-.304 2.265-.82 2.536-10.079.272-9.254.158-9.888-2.204-12.25-3.073-3.073-7.364-3.237-10.947-.418m23.104-.947c-2.329 1.304-2.199 3.557.282 4.885 2.423 1.297 3.979.535 3.979-1.948 0-2.64-2.147-4.12-4.261-2.937m25.787 1.124c-2.39 2.079-2.591 2.895-2.653 10.75-.094 12.102-.112 12 2.127 12 1.851 0 2-.667 2-8.929 0-6.888.369-9.297 1.616-10.544 2.961-2.961 6.894.826 4.627 4.456-1.906 3.052-1.618 6.087.507 5.334 5.713-2.026 7.127-8.531 2.795-12.862-3.113-3.113-7.581-3.196-11.019-.205m36.795-1.061c-3.329 1.609-4.437 5.613-4.114 14.873.274 7.886.44 8.459 2.543 8.758 1.906.27 2.25-.141 2.25-2.691 0-1.656.45-3.289 1-3.629 1.338-.827 1.284-5.5-.063-5.5-1.668 0-.633-6.175 1.229-7.341 1.204-.753 2.106-.678 3.25.271 1.229 1.021 1.584 3.319 1.584 10.262 0 8.706.061 8.939 2.25 8.628 2.168-.308 2.25-.698 2.25-10.66 0-9.662-.155-10.466-2.361-12.25-2.578-2.086-6.412-2.368-9.818-.721M7 134.845c0 10.452.856 12.525 5.5 13.315 2.519.428 3.478-3.847 1.07-4.771-1.264-.485-1.57-2.337-1.57-9.496 0-8.819-.021-8.893-2.5-8.893-2.497 0-2.5.01-2.5 9.845M22 127c-2.793 2.793-2.907 15.658-.168 19.04 2.552 3.153 10.668 3.502 10.668.46 0-1.524-.833-2.119-3.5-2.5-2.933-.419-3.5-.905-3.5-3 0-2.09.534-2.551 3.25-2.813 3.823-.369 4.594-3.187.872-3.187-1.307 0-2.898-.627-3.534-1.394-1.544-1.86 1.13-4.606 4.483-4.606 1.762 0 2.429-.549 2.429-2 0-1.704-.667-2-4.5-2-3.167 0-5.093.593-6.5 2m42.218 9.75c.272 11.326.363 11.762 2.532 12.07 2.197.312 2.25.098 2.25-9.143 0-10.006.544-11.132 4.834-10.01 2.929.766 3.422 3.077 1.143 5.356-2.456 2.456-2.456 4.324-.004 9.727 1.357 2.989 2.537 4.25 3.978 4.25 2.473 0 2.527-.764.426-6.015-1.497-3.742-1.497-4.195 0-5.849 2.249-2.485 2.055-7.704-.377-10.136-1.592-1.592-3.333-2-8.532-2h-6.531l.281 11.75m128.938-1.784c.362 10.491 1.041 12.129 5.594 13.494 1.904.571 2.25.299 2.25-1.77 0-1.345-.675-3.005-1.5-3.69-1.115-.925-1.5-3.396-1.5-9.622 0-8.351-.008-8.378-2.594-8.378h-2.593l.343 9.966M229 125.768c0 .422 1.104 2.393 2.454 4.379 1.951 2.872 2.514 5.119 2.75 10.982.272 6.777.477 7.397 2.546 7.691 2.153.305 2.25.012 2.25-6.82 0-6.297.354-7.654 3-11.5 3.525-5.123 3.601-5.5 1.115-5.5-1.037 0-2.622 1.125-3.523 2.5-.901 1.375-2.227 2.5-2.946 2.5-.719 0-1.91-1.125-2.646-2.5-1.214-2.269-5-3.581-5-1.732m-146.174 6.596c-.292 2.501.081 3.721 1.387 4.537 1.584.989 1.787.731 1.787-2.27 0-1.862-.624-3.904-1.387-4.537-1.129-.937-1.462-.515-1.787 2.27m94.841-1.697c-.367.366-.667 4.866-.667 10V150h-4c-2.889 0-4-.417-4-1.5 0-1.048-1.056-1.5-3.5-1.5-3.41 0-3.5.102-3.5 3.953 0 3.716.225 4.015 3.75 4.994 4.161 1.156 14.715 1.367 20.5.411 3.667-.606 3.75-.717 3.75-4.989V147h-4.315c-3.954 0-4.455-.295-6-3.534-2.083-4.369-2.167-8.821-.196-10.457.819-.68 1.242-1.635.941-2.122-.65-1.052-1.837-1.147-2.763-.22M95.2 133.2c-.66.66-1.2 2.755-1.2 4.655 0 3.392.037 3.422 2 1.645 1.107-1.002 2-3.08 2-4.655 0-3.051-.878-3.567-2.8-1.645m34.721 31.733c-15.457 10.254-26.045 41.836-19.187 57.231 3.571 8.017 7.971 8.791 16.861 2.969 3.248-2.128 9.28-6.857 13.405-10.509 4.125-3.653 10.414-8.1 13.976-9.883 6.18-3.093 7.004-3.241 18-3.241 10.824 0 11.919.188 18.024 3.101 3.594 1.715 10.524 6.57 15.5 10.859 10.13 8.732 17.76 13.517 21.576 13.531 5.527.02 9.932-8.297 9.909-18.709-.036-16.783-8.872-35.874-20.821-44.987-5.655-4.313-10.388-4.327-23.061-.067-8.652 2.909-10.742 3.225-21.103 3.194-10.207-.031-12.58-.394-21.103-3.228-12.154-4.042-16.204-4.09-21.976-.261M137 176.845c0 3.583.524 5.319 2.01 6.664 1.952 1.767 2.083 1.752 4.5-.519 1.909-1.793 2.49-3.348 2.49-6.664V172h-9v4.845m64.2-3.645c-.66.66-1.2 2.595-1.2 4.3 0 3.822 1.565 5.5 5.129 5.5 4.91 0 7.295-4.471 4.836-9.066-1.187-2.217-6.811-2.688-8.765-.734M192 183c-2.407 2.407-2.501 3.84-.443 6.777 1.715 2.449 6.254 3.012 8.243 1.023 1.989-1.989 1.426-6.528-1.023-8.243-2.937-2.058-4.37-1.964-6.777.443m-65.333-.333c-.367.366-.667 2.391-.667 4.5V191h4.826c3.789 0 5.305-.511 7.061-2.379l2.235-2.38-2.696-2.12c-2.599-2.045-9.268-2.946-10.759-1.454m18.343 1.823c-2.271 2.417-2.286 2.548-.519 4.5 1.345 1.486 3.081 2.01 6.664 2.01H156v-9h-4.326c-3.316 0-4.871.581-6.664 2.49m-6.355 6.339c-1.049 1.159-1.655 3.56-1.655 6.557v4.729l4.25-.308c4.247-.307 4.25-.31 4.562-4.659.483-6.719-3.563-10.291-7.157-6.319m62.862 1.563c-2.923 2.923-3.105 4.324-.96 7.385 3.189 4.554 10.443 1.966 10.443-3.726 0-5.272-5.679-7.463-9.483-3.659" fill="#1976D2" fill-rule="evenodd"/></svg>